<?xml version="1.0" encoding="utf-8"?>
<!-- Generator: Adobe Illustrator 16.0.0, SVG Export Plug-In . SVG Version: 6.00 Build 0)  -->
<!DOCTYPE svg PUBLIC "-//W3C//DTD SVG 1.1//EN" "http://www.w3.org/Graphics/SVG/1.1/DTD/svg11.dtd">
<svg version="1.1" id="Layer_1" xmlns="http://www.w3.org/2000/svg" xmlns:xlink="http://www.w3.org/1999/xlink" x="0px" y="0px"
	 width="400px" height="400px" viewBox="0 0 400 400" enable-background="new 0 0 400 400" xml:space="preserve">
<rect x="411" y="1" fill="#676ECE" width="400" height="400"/>
<path fill="#CACAFC" d="M41.224,92.634C5.548,128.31-0.684,175.884,26.728,203.297l84.146,84.146
	c27.411,27.411,74.986,21.18,110.663-14.495c35.675-35.677,41.906-83.251,14.495-110.663l-84.146-84.146
	C124.474,50.727,76.899,56.958,41.224,92.634z M207.747,190.568c10.935,10.934,4.446,35.154-14.495,54.094
	c-18.941,18.94-43.16,25.43-54.094,14.496l-84.146-84.146c-10.935-10.935-4.445-35.154,14.496-54.094s43.159-25.43,54.094-14.495
	L207.747,190.568z"/>
<path fill="#2F2F6D" d="M179.463,126.222c-35.676,35.675-41.907,83.25-14.495,110.663l84.146,84.145
	c27.412,27.412,74.987,21.182,110.663-14.494s41.907-83.251,14.495-110.664l-84.146-84.146
	C262.713,84.314,215.139,90.545,179.463,126.222z M345.987,224.156c10.934,10.934,4.444,35.153-14.495,54.094
	c-18.941,18.939-43.161,25.43-54.095,14.495L193.252,208.6c-10.935-10.935-4.444-35.154,14.496-54.094
	c18.939-18.939,43.158-25.43,54.093-14.495L345.987,224.156z"/>
<rect x="171.601" y="115.638" transform="matrix(0.7071 -0.7071 0.7071 0.7071 -47.2168 178.2836)" fill="#CACAFC" width="40" height="61"/>
</svg>
